<svg xmlns="http://www.w3.org/2000/svg" width="252.61" height="244.105" viewBox="0 0 252.61 244.105">
  <g id="Group_22" data-name="Group 22" transform="translate(-809.01 -1444.13)" opacity="0.51">
    <path id="Path_19" data-name="Path 19" d="M221.482,107.651c10.345,4.177,20.758,8.381,27.139,18.4,4.132,6.487,3.812,13.252-.374,19.716-4.2,6.481-10.487,10.457-17.212,13.769-12.875,6.341-26.66,9.79-40.7,12.276-33.5,5.931-67.216,6.706-101.028,3.752-20.794-1.817-41.364-5.047-61-12.575-7.837-3-15.318-6.7-21.4-12.682-9.194-9.038-9.2-20.3-.064-29.379,5.1-5.065,16.081-11.241,23.463-13.056-.7,1.778-1.325,3.329-1.92,4.891-1.614,4.238-.253,7.979,3.413,9.412,3.711,1.45,7.187-.292,8.907-4.588q15.19-37.92,30.346-75.853c4.271-10.655,13.005-16.225,23.956-14.807a27.453,27.453,0,0,1,9.448,3.452c5.371,2.98,10.515,6.378,15.674,9.723,3.907,2.533,7.648,2.527,11.583.059,5.9-3.7,11.693-7.669,17.894-10.8,12.525-6.333,25.653-1.008,30.833,12.106q14.6,36.968,29.179,73.948a19.294,19.294,0,0,0,1.674,3.459,6.29,6.29,0,0,0,7.766,2.334,5.834,5.834,0,0,0,3.879-7.006,23.3,23.3,0,0,0-.836-3.186c-.314-.949-.754-1.857-1.139-2.783l.519-.577" transform="translate(809.51 1418)" fill="none" stroke="#fff" stroke-width="1"/>
    <path id="Path_20" data-name="Path 20" d="M50.936,262.209c21.45-26.438,61.8-18.775,72.165,13.156a31.89,31.89,0,0,1,23.889.015c5.405-15.463,15.688-25.681,31.962-28.656,16.145-2.953,29.392,2.707,40.2,15.516.682-2.927,1.293-5.525,1.892-8.126.226-.983.379-1.985.646-2.957a6.582,6.582,0,0,1,7.953-5.025,6.5,6.5,0,0,1,4.875,8.006c-2.275,10.581-4.709,21.128-6.95,31.716-.795,3.757-.879,7.682-1.859,11.378-4.929,18.57-22.42,31.374-40.992,30.218-20.283-1.263-35.879-15.349-38.67-35.044a4.706,4.706,0,0,0-2.98-4.138c-5.554-2.482-11.068-2.581-16.408.357a5.49,5.49,0,0,0-2.454,3.487c-3.268,21.547-19.883,35.571-41.8,35.119-21.1-.436-37.251-16.1-39.464-37.535-.8-7.709-3-15.273-4.6-22.9-.865-4.129-1.868-8.23-2.688-12.368a6.574,6.574,0,0,1,12.8-2.988c.906,3.432,1.6,6.92,2.48,10.767" transform="translate(800.153 1360.207)" fill="none" stroke="#fff" stroke-width="1"/>
  </g>
</svg>
