<svg xmlns="http://www.w3.org/2000/svg" width="216.389" height="216.376" viewBox="0 0 216.389 216.376">
  <g id="Group_21" data-name="Group 21" transform="translate(-1412.065 -1417.5)" opacity="0.51">
    <path id="Path_15" data-name="Path 15" d="M603.055,46.693V16.406c.164-.6.335-1.2.491-1.8a18.306,18.306,0,0,1,9.091-12.046A50.1,50.1,0,0,1,619.461,0H802.025a2.629,2.629,0,0,0,.559.28c10.226,2.352,15.833,9.337,15.845,19.767.008,7.78.043,15.561-.029,23.341a23.282,23.282,0,0,1-.667,5.6c-2.253,8.651-9.656,14.1-19.046,14.1q-70.339.014-140.677,0c-11.986,0-23.972.04-35.958-.017a18.945,18.945,0,0,1-18.037-12.976c-.37-1.121-.642-2.274-.96-3.412m158.468-8.834c8.261,0,16.523.014,24.786-.006,4.056-.01,6.9-2.663,6.873-6.345s-2.859-6.261-6.952-6.264q-24.576-.017-49.151,0c-4.089,0-6.941,2.578-6.979,6.238-.038,3.748,2.84,6.367,7.057,6.374q12.183.019,24.366,0m-126.955-.007a6.3,6.3,0,1,0-6.266-6.287,6.374,6.374,0,0,0,6.266,6.287m31.576-6.314a6.3,6.3,0,1,0-6.239,6.314,6.368,6.368,0,0,0,6.239-6.314m25.235.319a6.306,6.306,0,1,0-6.554,5.992,6.38,6.38,0,0,0,6.554-5.992" transform="translate(809.51 1418)" fill="none" stroke="#fff" stroke-width="1"/>
    <path id="Path_16" data-name="Path 16" d="M603.056,182.177V151.89a5.709,5.709,0,0,0,.311-.764c2.605-10.3,9.4-15.64,19.94-15.641q87.674,0,175.347,0c11.608,0,19.739,8.1,19.772,19.663.024,7.919.046,15.839-.026,23.758a23.124,23.124,0,0,1-.678,5.6c-2.284,8.712-9.683,14.069-19.276,14.07q-70.538.008-141.076,0c-11.774,0-23.548.041-35.321-.017a18.946,18.946,0,0,1-18.033-12.977c-.37-1.121-.642-2.274-.959-3.412m158.595-21.453q-12.288,0-24.575,0c-4.088.007-6.94,2.582-6.975,6.242-.035,3.747,2.843,6.367,7.062,6.369q24.471.013,48.941,0c4.233,0,7.106-2.6,7.08-6.352s-2.884-6.257-7.167-6.261q-12.183-.013-24.366,0M634.576,173.336a6.3,6.3,0,1,0-6.273-6.28,6.376,6.376,0,0,0,6.273,6.28m25.371,0a6.3,6.3,0,1,0-6.4-6.149,6.373,6.373,0,0,0,6.4,6.149m25.105,0a6.3,6.3,0,1,0-6.27-6.283,6.375,6.375,0,0,0,6.27,6.283" transform="translate(809.509 1358.654)" fill="none" stroke="#fff" stroke-width="1"/>
    <path id="Path_17" data-name="Path 17" d="M603.056,317.662V287.375a5.785,5.785,0,0,0,.311-.764c2.606-10.3,9.4-15.64,19.94-15.641q87.673,0,175.346,0c11.608,0,19.739,8.1,19.773,19.663.023,7.919.046,15.839-.026,23.757a23.1,23.1,0,0,1-.678,5.6c-2.284,8.712-9.683,14.069-19.276,14.07q-70.749.008-141.5,0c-11.634,0-23.268.041-34.9-.017a18.947,18.947,0,0,1-18.033-12.977c-.37-1.121-.642-2.274-.959-3.412m158.594-8.834q12.393,0,24.786,0A6.263,6.263,0,0,0,792.646,305c1.937-4.318-1.287-8.778-6.333-8.784q-24.681-.029-49.361,0c-4.032,0-6.89,2.694-6.852,6.363s2.884,6.238,6.974,6.246q12.288.024,24.575,0M640.906,302.42a6.3,6.3,0,1,0-6.154,6.4,6.371,6.371,0,0,0,6.154-6.4m25.239.075a6.3,6.3,0,1,0-6.228,6.326,6.37,6.37,0,0,0,6.228-6.326m25.239.055a6.3,6.3,0,1,0-6.283,6.271,6.369,6.369,0,0,0,6.283-6.271" transform="translate(809.509 1299.307)" fill="none" stroke="#fff" stroke-width="1"/>
  </g>
</svg>
