<svg xmlns="http://www.w3.org/2000/svg" width="163.752" height="252.747" viewBox="0 0 163.752 252.747">
  <g id="Group_15" data-name="Group 15" transform="translate(-1099.93 -789.497)" opacity="0.51">
    <path id="Path_11" data-name="Path 11" d="M829.2,251.744a10.716,10.716,0,0,0-1.315-.513,21.759,21.759,0,0,1-15.218-12.443,2.671,2.671,0,0,0-2.911-1.827q-27.654.076-55.307.033h-2.795V222.242H754.4q27.531,0,55.061.032c1.642,0,2.558-.324,3.3-2a21.8,21.8,0,0,1,10.926-10.842,3.118,3.118,0,0,0,1.5-2.253c.124-6.06.143-12.127,0-18.186a5.047,5.047,0,0,0-1.558-3.048Q800.346,163,776.951,140.171C763.414,126.985,755.087,111.2,752.3,92.437,747.359,59.253,764.767,25,794.657,9.445c44.787-23.313,99.165-1.8,114.827,46.177,9.917,30.375,3.64,58.167-18.343,81.449-15.794,16.728-32.718,32.391-49.193,48.473a5.753,5.753,0,0,0-1.981,4.675c.138,5.486.092,10.979.018,16.467a2.616,2.616,0,0,0,1.778,2.951,20.468,20.468,0,0,1,10.853,10.858c.663,1.513,1.5,1.778,2.954,1.775q27.775-.063,55.553-.028h2.52v14.751h-2.81c-18.353,0-36.708.022-55.061-.036A3.029,3.029,0,0,0,852.495,239a21.662,21.662,0,0,1-14.859,12.182c-.531.139-1.037.37-1.555.558Zm3.331-207.085v73.193h14.656V88.466c3,0,5.7.091,8.4-.016,10.9-.432,20.178-9.4,20.886-20.124.774-11.709-6.784-22.284-18.005-23.487-8.487-.91-17.15-.18-25.934-.18M817.382,44.4H803.029v73.52h14.352Z" transform="translate(349.019 790)" fill="none" stroke="#fff" stroke-width="1"/>
    <path id="Path_12" data-name="Path 12" d="M897.345,89.829c2.729,0,5.273-.135,7.8.031a7.342,7.342,0,0,1,.011,14.631c-2.523.174-5.067.033-7.807.033Z" transform="translate(298.965 759.196)" fill="none" stroke="#fff" stroke-width="1"/>
  </g>
</svg>
