<svg xmlns="http://www.w3.org/2000/svg" width="217.029" height="217.085" viewBox="0 0 217.029 217.085">
  <g id="Group_16" data-name="Group 16" transform="translate(-309.518 -919.52)" opacity="0.51">
    <path id="Path_13" data-name="Path 13" d="M0,402.8v-3.375c2.595-6.12,8.151-4.367,13.08-4.693v-2.617q0-26.684,0-53.368c0-4.793,2.44-7.1,7.261-7.31,7.581-.329,15.158-.781,22.729-1.287,5.372-.358,7.98,2,7.98,7.459q0,27.316,0,54.633v2.437H63.711V392.1q0-29.637,0-59.274c0-4.083,1.776-6.165,5.641-7.247,7.565-2.118,15.121-4.28,22.622-6.613,6.018-1.872,9.706.661,9.706,6.955q0,33.118,0,66.235v2.471h12.658v-2.657q0-38.6-.019-77.2c0-2.821.8-5.089,3.34-6.565q12.469-7.253,24.926-14.525a6.313,6.313,0,0,1,9.717,5.313c.029.7.009,1.406.009,2.109v93.506h12.658V391.7q0-55.266-.047-110.532a9.585,9.585,0,0,1,3.331-7.763c3.954-3.585,7.754-7.359,11.4-11.259,4.127-4.413,8-9.062,12.006-13.589a6.344,6.344,0,0,1,11.279,4.163c.017.633.005,1.265.005,1.9V394.786c2.467,0,4.7-.069,6.935.016a6.309,6.309,0,0,1,.9,12.525,15.526,15.526,0,0,1-2.734.106q-99.774.007-199.549.06c-3.92.005-6.814-1.05-8.5-4.7" transform="translate(310.019 728.611)" fill="none" stroke="#fff" stroke-width="1"/>
    <path id="Path_14" data-name="Path 14" d="M211.386,149.02c3.172,1.531,4.509,3.992,4.471,7.571-.086,8.083.159,16.169.129,24.253a6.228,6.228,0,0,1-6.252,6.142,6.354,6.354,0,0,1-6.353-6.281c-.048-1.322-.008-2.649-.008-4.6-1.017,1.12-1.691,1.851-2.354,2.592-9.467,10.586-18.625,21.468-28.456,31.7-28.917,30.11-63.959,49.572-104.632,58.828a198.63,198.63,0,0,1-61.374,4.375C3.24,273.323,1.35,271.584,0,268.848v-3.375c2.011-4.1,5.308-4.706,9.617-4.4a190.972,190.972,0,0,0,103.627-21.583c22.86-11.908,42.346-28.018,59.15-47.5,8.356-9.689,16.945-19.178,25.425-28.761.352-.4.669-.826,1.255-1.554-5.132,0-9.883.038-14.635-.014a6.31,6.31,0,0,1-4-11.206,26.266,26.266,0,0,1,2.26-1.435Z" transform="translate(310.019 771)" fill="none" stroke="#fff" stroke-width="1"/>
  </g>
</svg>
