<svg xmlns="http://www.w3.org/2000/svg" xmlns:xlink="http://www.w3.org/1999/xlink" width="51" height="52" viewBox="0 0 51 52">
  <defs>
    <linearGradient id="linear-gradient" x1="1.291" y1="-0.406" x2="0" y2="1.455" gradientUnits="objectBoundingBox">
      <stop offset="0" stop-color="#007cf0"/>
      <stop offset="1" stop-color="#00a9f0"/>
    </linearGradient>
  </defs>
  <g id="Group_55" data-name="Group 55" transform="translate(-1001 -737)">
    <rect id="Rectangle_11" data-name="Rectangle 11" width="51" height="52" rx="5" transform="translate(1001 737)" fill="url(#linear-gradient)"/>
    <g id="Group_12" data-name="Group 12" transform="translate(-84.484 -44)">
      <path id="Path_11" data-name="Path 11" d="M761.887,33.753a1.438,1.438,0,0,0-.176-.069,2.918,2.918,0,0,1-2.04-1.668.358.358,0,0,0-.39-.245q-3.708.01-7.415,0h-.375V29.8h.369q3.691,0,7.382,0a.4.4,0,0,0,.443-.268,2.923,2.923,0,0,1,1.465-1.454.418.418,0,0,0,.2-.3c.017-.813.019-1.626,0-2.438a.677.677,0,0,0-.209-.409q-3.122-3.076-6.259-6.138a10.883,10.883,0,0,1,2.374-17.527,10.826,10.826,0,0,1,15.4,6.191,10.354,10.354,0,0,1-2.459,10.921c-2.118,2.243-4.387,4.343-6.6,6.5a.771.771,0,0,0-.266.627c.019.736.012,1.472,0,2.208a.351.351,0,0,0,.238.4,2.744,2.744,0,0,1,1.455,1.456.354.354,0,0,0,.4.238q3.724-.008,7.448,0h.338v1.978h-.377c-2.461,0-4.922,0-7.383,0a.406.406,0,0,0-.439.274,2.9,2.9,0,0,1-1.992,1.633c-.071.019-.139.05-.208.075Zm.447-27.765V15.8H764.3v-3.94c.4,0,.765.012,1.126,0a2.96,2.96,0,0,0,2.8-2.7,2.859,2.859,0,0,0-2.414-3.149,32.988,32.988,0,0,0-3.477-.024M760.3,5.953h-1.924v9.857H760.3Z" transform="translate(349.019 790)" fill="#fff"/>
      <path id="Path_12" data-name="Path 12" d="M897.345,89.785c.366,0,.707-.018,1.045,0a.984.984,0,0,1,0,1.962c-.338.023-.679,0-1.047,0Z" transform="translate(215.987 708.129)" fill="#fff"/>
    </g>
  </g>
</svg>
