<svg xmlns="http://www.w3.org/2000/svg" xmlns:xlink="http://www.w3.org/1999/xlink" width="51" height="52" viewBox="0 0 51 52">
  <defs>
    <linearGradient id="linear-gradient" x1="1.291" y1="-0.406" x2="0" y2="1.455" gradientUnits="objectBoundingBox">
      <stop offset="0" stop-color="#007cf0"/>
      <stop offset="1" stop-color="#00a9f0"/>
    </linearGradient>
  </defs>
  <g id="Group_56" data-name="Group 56" transform="translate(-375 -737)">
    <rect id="Rectangle_10" data-name="Rectangle 10" width="51" height="52" rx="5" transform="translate(375 737)" fill="url(#linear-gradient)"/>
    <g id="Group_13" data-name="Group 13" transform="translate(74.982 -172.02)">
      <path id="Path_13" data-name="Path 13" d="M0,268.542v-.482c.371-.874,1.164-.624,1.868-.67v-.374q0-3.811,0-7.623a.938.938,0,0,1,1.037-1.044c1.083-.047,2.165-.112,3.247-.184.767-.051,1.14.285,1.14,1.065q0,3.9,0,7.8v.348H9.1v-.367q0-4.233,0-8.466a.952.952,0,0,1,.806-1.035c1.081-.3,2.16-.611,3.231-.945.86-.267,1.386.094,1.386.993q0,4.73,0,9.461v.353h1.808V267q0-5.514,0-11.027a.976.976,0,0,1,.477-.938q1.781-1.036,3.56-2.075a.9.9,0,0,1,1.388.759c0,.1,0,.2,0,.3v13.356h1.808v-.416q0-7.894-.007-15.788a1.369,1.369,0,0,1,.476-1.109c.565-.512,1.108-1.051,1.628-1.608.589-.63,1.143-1.294,1.715-1.941a.906.906,0,0,1,1.611.595c0,.09,0,.181,0,.271V267.4c.352,0,.672-.01.991,0a.9.9,0,0,1,.129,1.789,2.217,2.217,0,0,1-.39.015q-14.251,0-28.5.009A1.164,1.164,0,0,1,0,268.542" transform="translate(310.018 681.672)" fill="#fff"/>
      <path id="Path_14" data-name="Path 14" d="M30.193,149.02a1.069,1.069,0,0,1,.639,1.081c-.012,1.155.023,2.31.018,3.464a.89.89,0,0,1-.893.877.908.908,0,0,1-.907-.9c-.007-.189,0-.378,0-.657-.145.16-.242.264-.336.37-1.352,1.512-2.66,3.066-4.065,4.529a29.3,29.3,0,0,1-14.945,8.4,28.372,28.372,0,0,1-8.766.625,1.08,1.08,0,0,1-.937-.68v-.482c.287-.585.758-.672,1.374-.628a27.278,27.278,0,0,0,14.8-3.083,28.51,28.51,0,0,0,8.449-6.785c1.194-1.384,2.42-2.739,3.632-4.108.05-.057.1-.118.179-.222-.733,0-1.412.005-2.09,0a.9.9,0,0,1-.572-1.6,3.757,3.757,0,0,1,.323-.2Z" transform="translate(310.019 771)" fill="#fff"/>
    </g>
  </g>
</svg>
